<svg xmlns="http://www.w3.org/2000/svg" viewBox="0 0 32 32" width="32" height="32">
  <rect width="32" height="32" fill="#ffffff"/>
  <g fill="none" stroke="#333333" stroke-width="1">
    <rect x="1" y="1" width="6" height="6"/>
    <rect x="7" y="1" width="6" height="6"/>
    <rect x="13" y="1" width="6" height="6"/>
    <rect x="19" y="1" width="6" height="6"/>
    <rect x="25" y="1" width="6" height="6"/>
    
    <rect x="1" y="7" width="6" height="6"/>
    <rect x="7" y="7" width="6" height="6"/>
    <rect x="13" y="7" width="6" height="6"/>
    <rect x="19" y="7" width="6" height="6"/>
    <rect x="25" y="7" width="6" height="6"/>
    
    <rect x="1" y="13" width="6" height="6"/>
    <rect x="7" y="13" width="6" height="6"/>
    <rect x="13" y="13" width="6" height="6"/>
    <rect x="19" y="13" width="6" height="6"/>
    <rect x="25" y="13" width="6" height="6"/>
    
    <rect x="1" y="19" width="6" height="6"/>
    <rect x="7" y="19" width="6" height="6"/>
    <rect x="13" y="19" width="6" height="6"/>
    <rect x="19" y="19" width="6" height="6"/>
    <rect x="25" y="19" width="6" height="6"/>
    
    <rect x="1" y="25" width="6" height="6"/>
    <rect x="7" y="25" width="6" height="6"/>
    <rect x="13" y="25" width="6" height="6"/>
    <rect x="19" y="25" width="6" height="6"/>
    <rect x="25" y="25" width="6" height="6"/>
  </g>
  <rect x="7" y="7" width="6" height="6" fill="#6aaa64"/>
  <rect x="19" y="19" width="6" height="6" fill="#c9b458"/>
</svg>